# Model 3D sistem SIGAP Drainase di lapangan
# Satuan meter. Titik acuan di dasar saluran, tengah bak kontrol.
mtllib sigap_drainase.mtl


g tanah_belakang
usemtl bahan_00
v -2.3000 -0.6000 1.3500
v 2.3000 -0.6000 1.3500
v 2.3000 -0.6000 0.4500
v -2.3000 -0.6000 0.4500
f 1 2 3 4
v -2.3000 1.0500 1.3500
v 2.3000 1.0500 1.3500
v 2.3000 1.0500 0.4500
v -2.3000 1.0500 0.4500
f 5 6 7 8
v -2.3000 -0.6000 1.3500
v 2.3000 -0.6000 1.3500
v 2.3000 1.0500 1.3500
v -2.3000 1.0500 1.3500
f 9 10 11 12
v -2.3000 -0.6000 0.4500
v 2.3000 -0.6000 0.4500
v 2.3000 1.0500 0.4500
v -2.3000 1.0500 0.4500
f 13 14 15 16
v -2.3000 -0.6000 1.3500
v -2.3000 -0.6000 0.4500
v -2.3000 1.0500 0.4500
v -2.3000 1.0500 1.3500
f 17 18 19 20
v 2.3000 -0.6000 1.3500
v 2.3000 -0.6000 0.4500
v 2.3000 1.0500 0.4500
v 2.3000 1.0500 1.3500
f 21 22 23 24

g jalan
usemtl bahan_01
v -2.3000 1.0500 1.3500
v 2.3000 1.0500 1.3500
v 2.3000 1.0500 0.4500
v -2.3000 1.0500 0.4500
f 25 26 27 28
v -2.3000 1.1100 1.3500
v 2.3000 1.1100 1.3500
v 2.3000 1.1100 0.4500
v -2.3000 1.1100 0.4500
f 29 30 31 32
v -2.3000 1.0500 1.3500
v 2.3000 1.0500 1.3500
v 2.3000 1.1100 1.3500
v -2.3000 1.1100 1.3500
f 33 34 35 36
v -2.3000 1.0500 0.4500
v 2.3000 1.0500 0.4500
v 2.3000 1.1100 0.4500
v -2.3000 1.1100 0.4500
f 37 38 39 40
v -2.3000 1.0500 1.3500
v -2.3000 1.0500 0.4500
v -2.3000 1.1100 0.4500
v -2.3000 1.1100 1.3500
f 41 42 43 44
v 2.3000 1.0500 1.3500
v 2.3000 1.0500 0.4500
v 2.3000 1.1100 0.4500
v 2.3000 1.1100 1.3500
f 45 46 47 48

g dasar_beton
usemtl bahan_02
v -2.3000 -0.1500 0.4500
v 2.3000 -0.1500 0.4500
v 2.3000 -0.1500 -0.4500
v -2.3000 -0.1500 -0.4500
f 49 50 51 52
v -2.3000 0.0000 0.4500
v 2.3000 0.0000 0.4500
v 2.3000 0.0000 -0.4500
v -2.3000 0.0000 -0.4500
f 53 54 55 56
v -2.3000 -0.1500 0.4500
v 2.3000 -0.1500 0.4500
v 2.3000 0.0000 0.4500
v -2.3000 0.0000 0.4500
f 57 58 59 60
v -2.3000 -0.1500 -0.4500
v 2.3000 -0.1500 -0.4500
v 2.3000 0.0000 -0.4500
v -2.3000 0.0000 -0.4500
f 61 62 63 64
v -2.3000 -0.1500 0.4500
v -2.3000 -0.1500 -0.4500
v -2.3000 0.0000 -0.4500
v -2.3000 0.0000 0.4500
f 65 66 67 68
v 2.3000 -0.1500 0.4500
v 2.3000 -0.1500 -0.4500
v 2.3000 0.0000 -0.4500
v 2.3000 0.0000 0.4500
f 69 70 71 72

g dinding_belakang
usemtl bahan_03
v -2.3000 0.0000 0.4500
v 2.3000 0.0000 0.4500
v 2.3000 0.0000 0.3000
v -2.3000 0.0000 0.3000
f 73 74 75 76
v -2.3000 0.8000 0.4500
v 2.3000 0.8000 0.4500
v 2.3000 0.8000 0.3000
v -2.3000 0.8000 0.3000
f 77 78 79 80
v -2.3000 0.0000 0.4500
v 2.3000 0.0000 0.4500
v 2.3000 0.8000 0.4500
v -2.3000 0.8000 0.4500
f 81 82 83 84
v -2.3000 0.0000 0.3000
v 2.3000 0.0000 0.3000
v 2.3000 0.8000 0.3000
v -2.3000 0.8000 0.3000
f 85 86 87 88
v -2.3000 0.0000 0.4500
v -2.3000 0.0000 0.3000
v -2.3000 0.8000 0.3000
v -2.3000 0.8000 0.4500
f 89 90 91 92
v 2.3000 0.0000 0.4500
v 2.3000 0.0000 0.3000
v 2.3000 0.8000 0.3000
v 2.3000 0.8000 0.4500
f 93 94 95 96

g bekas_potongan
usemtl bahan_02
v -2.3000 0.0000 -0.3000
v -2.0000 0.0000 -0.3000
v -2.0000 0.0000 -0.4500
v -2.3000 0.0000 -0.4500
f 97 98 99 100
v -2.3000 0.8000 -0.3000
v -2.0000 0.8000 -0.3000
v -2.0000 0.8000 -0.4500
v -2.3000 0.8000 -0.4500
f 101 102 103 104
v -2.3000 0.0000 -0.3000
v -2.0000 0.0000 -0.3000
v -2.0000 0.8000 -0.3000
v -2.3000 0.8000 -0.3000
f 105 106 107 108
v -2.3000 0.0000 -0.4500
v -2.0000 0.0000 -0.4500
v -2.0000 0.8000 -0.4500
v -2.3000 0.8000 -0.4500
f 109 110 111 112
v -2.3000 0.0000 -0.3000
v -2.3000 0.0000 -0.4500
v -2.3000 0.8000 -0.4500
v -2.3000 0.8000 -0.3000
f 113 114 115 116
v -2.0000 0.0000 -0.3000
v -2.0000 0.0000 -0.4500
v -2.0000 0.8000 -0.4500
v -2.0000 0.8000 -0.3000
f 117 118 119 120
v 2.0000 0.0000 -0.3000
v 2.3000 0.0000 -0.3000
v 2.3000 0.0000 -0.4500
v 2.0000 0.0000 -0.4500
f 121 122 123 124
v 2.0000 0.8000 -0.3000
v 2.3000 0.8000 -0.3000
v 2.3000 0.8000 -0.4500
v 2.0000 0.8000 -0.4500
f 125 126 127 128
v 2.0000 0.0000 -0.3000
v 2.3000 0.0000 -0.3000
v 2.3000 0.8000 -0.3000
v 2.0000 0.8000 -0.3000
f 129 130 131 132
v 2.0000 0.0000 -0.4500
v 2.3000 0.0000 -0.4500
v 2.3000 0.8000 -0.4500
v 2.0000 0.8000 -0.4500
f 133 134 135 136
v 2.0000 0.0000 -0.3000
v 2.0000 0.0000 -0.4500
v 2.0000 0.8000 -0.4500
v 2.0000 0.8000 -0.3000
f 137 138 139 140
v 2.3000 0.0000 -0.3000
v 2.3000 0.0000 -0.4500
v 2.3000 0.8000 -0.4500
v 2.3000 0.8000 -0.3000
f 141 142 143 144

g pelat_saluran
v -2.3000 0.8000 0.4500
v -1.1000 0.8000 0.4500
v -1.1000 0.8000 -0.0300
v -2.3000 0.8000 -0.0300
f 145 146 147 148
v -2.3000 1.0500 0.4500
v -1.1000 1.0500 0.4500
v -1.1000 1.0500 -0.0300
v -2.3000 1.0500 -0.0300
f 149 150 151 152
v -2.3000 0.8000 0.4500
v -1.1000 0.8000 0.4500
v -1.1000 1.0500 0.4500
v -2.3000 1.0500 0.4500
f 153 154 155 156
v -2.3000 0.8000 -0.0300
v -1.1000 0.8000 -0.0300
v -1.1000 1.0500 -0.0300
v -2.3000 1.0500 -0.0300
f 157 158 159 160
v -2.3000 0.8000 0.4500
v -2.3000 0.8000 -0.0300
v -2.3000 1.0500 -0.0300
v -2.3000 1.0500 0.4500
f 161 162 163 164
v -1.1000 0.8000 0.4500
v -1.1000 0.8000 -0.0300
v -1.1000 1.0500 -0.0300
v -1.1000 1.0500 0.4500
f 165 166 167 168
v 1.1000 0.8000 0.4500
v 2.3000 0.8000 0.4500
v 2.3000 0.8000 -0.0300
v 1.1000 0.8000 -0.0300
f 169 170 171 172
v 1.1000 1.0500 0.4500
v 2.3000 1.0500 0.4500
v 2.3000 1.0500 -0.0300
v 1.1000 1.0500 -0.0300
f 173 174 175 176
v 1.1000 0.8000 0.4500
v 2.3000 0.8000 0.4500
v 2.3000 1.0500 0.4500
v 1.1000 1.0500 0.4500
f 177 178 179 180
v 1.1000 0.8000 -0.0300
v 2.3000 0.8000 -0.0300
v 2.3000 1.0500 -0.0300
v 1.1000 1.0500 -0.0300
f 181 182 183 184
v 1.1000 0.8000 0.4500
v 1.1000 0.8000 -0.0300
v 1.1000 1.0500 -0.0300
v 1.1000 1.0500 0.4500
f 185 186 187 188
v 2.3000 0.8000 0.4500
v 2.3000 0.8000 -0.0300
v 2.3000 1.0500 -0.0300
v 2.3000 1.0500 0.4500
f 189 190 191 192

g dinding_bak
usemtl bahan_03
v -1.1000 0.8000 0.4500
v 1.1000 0.8000 0.4500
v 1.1000 0.8000 0.3000
v -1.1000 0.8000 0.3000
f 193 194 195 196
v -1.1000 1.6000 0.4500
v 1.1000 1.6000 0.4500
v 1.1000 1.6000 0.3000
v -1.1000 1.6000 0.3000
f 197 198 199 200
v -1.1000 0.8000 0.4500
v 1.1000 0.8000 0.4500
v 1.1000 1.6000 0.4500
v -1.1000 1.6000 0.4500
f 201 202 203 204
v -1.1000 0.8000 0.3000
v 1.1000 0.8000 0.3000
v 1.1000 1.6000 0.3000
v -1.1000 1.6000 0.3000
f 205 206 207 208
v -1.1000 0.8000 0.4500
v -1.1000 0.8000 0.3000
v -1.1000 1.6000 0.3000
v -1.1000 1.6000 0.4500
f 209 210 211 212
v 1.1000 0.8000 0.4500
v 1.1000 0.8000 0.3000
v 1.1000 1.6000 0.3000
v 1.1000 1.6000 0.4500
f 213 214 215 216
usemtl bahan_02
v -1.1000 0.8000 0.4500
v -0.9500 0.8000 0.4500
v -0.9500 0.8000 -0.4500
v -1.1000 0.8000 -0.4500
f 217 218 219 220
v -1.1000 1.6000 0.4500
v -0.9500 1.6000 0.4500
v -0.9500 1.6000 -0.4500
v -1.1000 1.6000 -0.4500
f 221 222 223 224
v -1.1000 0.8000 0.4500
v -0.9500 0.8000 0.4500
v -0.9500 1.6000 0.4500
v -1.1000 1.6000 0.4500
f 225 226 227 228
v -1.1000 0.8000 -0.4500
v -0.9500 0.8000 -0.4500
v -0.9500 1.6000 -0.4500
v -1.1000 1.6000 -0.4500
f 229 230 231 232
v -1.1000 0.8000 0.4500
v -1.1000 0.8000 -0.4500
v -1.1000 1.6000 -0.4500
v -1.1000 1.6000 0.4500
f 233 234 235 236
v -0.9500 0.8000 0.4500
v -0.9500 0.8000 -0.4500
v -0.9500 1.6000 -0.4500
v -0.9500 1.6000 0.4500
f 237 238 239 240
v 0.9500 0.8000 0.4500
v 1.1000 0.8000 0.4500
v 1.1000 0.8000 -0.4500
v 0.9500 0.8000 -0.4500
f 241 242 243 244
v 0.9500 1.6000 0.4500
v 1.1000 1.6000 0.4500
v 1.1000 1.6000 -0.4500
v 0.9500 1.6000 -0.4500
f 245 246 247 248
v 0.9500 0.8000 0.4500
v 1.1000 0.8000 0.4500
v 1.1000 1.6000 0.4500
v 0.9500 1.6000 0.4500
f 249 250 251 252
v 0.9500 0.8000 -0.4500
v 1.1000 0.8000 -0.4500
v 1.1000 1.6000 -0.4500
v 0.9500 1.6000 -0.4500
f 253 254 255 256
v 0.9500 0.8000 0.4500
v 0.9500 0.8000 -0.4500
v 0.9500 1.6000 -0.4500
v 0.9500 1.6000 0.4500
f 257 258 259 260
v 1.1000 0.8000 0.4500
v 1.1000 0.8000 -0.4500
v 1.1000 1.6000 -0.4500
v 1.1000 1.6000 0.4500
f 261 262 263 264

g tutup_bak
v -1.1000 1.6000 0.4500
v -0.4000 1.6000 0.4500
v -0.4000 1.6000 -0.4500
v -1.1000 1.6000 -0.4500
f 265 266 267 268
v -1.1000 1.7000 0.4500
v -0.4000 1.7000 0.4500
v -0.4000 1.7000 -0.4500
v -1.1000 1.7000 -0.4500
f 269 270 271 272
v -1.1000 1.6000 0.4500
v -0.4000 1.6000 0.4500
v -0.4000 1.7000 0.4500
v -1.1000 1.7000 0.4500
f 273 274 275 276
v -1.1000 1.6000 -0.4500
v -0.4000 1.6000 -0.4500
v -0.4000 1.7000 -0.4500
v -1.1000 1.7000 -0.4500
f 277 278 279 280
v -1.1000 1.6000 0.4500
v -1.1000 1.6000 -0.4500
v -1.1000 1.7000 -0.4500
v -1.1000 1.7000 0.4500
f 281 282 283 284
v -0.4000 1.6000 0.4500
v -0.4000 1.6000 -0.4500
v -0.4000 1.7000 -0.4500
v -0.4000 1.7000 0.4500
f 285 286 287 288

g endapan
usemtl bahan_04
v -2.3000 0.0000 0.3000
v 2.3000 0.0000 0.3000
v 2.3000 0.0000 -0.3000
v -2.3000 0.0000 -0.3000
f 289 290 291 292
v -2.3000 0.3000 0.3000
v 2.3000 0.3000 0.3000
v 2.3000 0.3000 -0.3000
v -2.3000 0.3000 -0.3000
f 293 294 295 296
v -2.3000 0.0000 0.3000
v 2.3000 0.0000 0.3000
v 2.3000 0.3000 0.3000
v -2.3000 0.3000 0.3000
f 297 298 299 300
v -2.3000 0.0000 -0.3000
v 2.3000 0.0000 -0.3000
v 2.3000 0.3000 -0.3000
v -2.3000 0.3000 -0.3000
f 301 302 303 304
v -2.3000 0.0000 0.3000
v -2.3000 0.0000 -0.3000
v -2.3000 0.3000 -0.3000
v -2.3000 0.3000 0.3000
f 305 306 307 308
v 2.3000 0.0000 0.3000
v 2.3000 0.0000 -0.3000
v 2.3000 0.3000 -0.3000
v 2.3000 0.3000 0.3000
f 309 310 311 312

g air
usemtl bahan_05
v -2.3000 0.3000 0.3000
v 2.3000 0.3000 0.3000
v 2.3000 0.3000 -0.3000
v -2.3000 0.3000 -0.3000
f 313 314 315 316
v -2.3000 0.4200 0.3000
v 2.3000 0.4200 0.3000
v 2.3000 0.4200 -0.3000
v -2.3000 0.4200 -0.3000
f 317 318 319 320
v -2.3000 0.3000 0.3000
v 2.3000 0.3000 0.3000
v 2.3000 0.4200 0.3000
v -2.3000 0.4200 0.3000
f 321 322 323 324
v -2.3000 0.3000 -0.3000
v 2.3000 0.3000 -0.3000
v 2.3000 0.4200 -0.3000
v -2.3000 0.4200 -0.3000
f 325 326 327 328
v -2.3000 0.3000 0.3000
v -2.3000 0.3000 -0.3000
v -2.3000 0.4200 -0.3000
v -2.3000 0.4200 0.3000
f 329 330 331 332
v 2.3000 0.3000 0.3000
v 2.3000 0.3000 -0.3000
v 2.3000 0.4200 -0.3000
v 2.3000 0.4200 0.3000
f 333 334 335 336

g dudukan
usemtl bahan_06
v -0.0600 1.3000 0.4500
v 0.0600 1.3000 0.4500
v 0.0600 1.3000 -0.4500
v -0.0600 1.3000 -0.4500
f 337 338 339 340
v -0.0600 1.3500 0.4500
v 0.0600 1.3500 0.4500
v 0.0600 1.3500 -0.4500
v -0.0600 1.3500 -0.4500
f 341 342 343 344
v -0.0600 1.3000 0.4500
v 0.0600 1.3000 0.4500
v 0.0600 1.3500 0.4500
v -0.0600 1.3500 0.4500
f 345 346 347 348
v -0.0600 1.3000 -0.4500
v 0.0600 1.3000 -0.4500
v 0.0600 1.3500 -0.4500
v -0.0600 1.3500 -0.4500
f 349 350 351 352
v -0.0600 1.3000 0.4500
v -0.0600 1.3000 -0.4500
v -0.0600 1.3500 -0.4500
v -0.0600 1.3500 0.4500
f 353 354 355 356
v 0.0600 1.3000 0.4500
v 0.0600 1.3000 -0.4500
v 0.0600 1.3500 -0.4500
v 0.0600 1.3500 0.4500
f 357 358 359 360

g sensor_radar
usemtl bahan_07
v 0.0550 1.1000 -0.0000
v 0.0523 1.1000 -0.0170
v 0.0523 1.3000 -0.0170
v 0.0550 1.3000 -0.0000
f 361 362 363 364
v 0.0523 1.1000 -0.0170
v 0.0445 1.1000 -0.0323
v 0.0445 1.3000 -0.0323
v 0.0523 1.3000 -0.0170
f 365 366 367 368
v 0.0445 1.1000 -0.0323
v 0.0323 1.1000 -0.0445
v 0.0323 1.3000 -0.0445
v 0.0445 1.3000 -0.0323
f 369 370 371 372
v 0.0323 1.1000 -0.0445
v 0.0170 1.1000 -0.0523
v 0.0170 1.3000 -0.0523
v 0.0323 1.3000 -0.0445
f 373 374 375 376
v 0.0170 1.1000 -0.0523
v 0.0000 1.1000 -0.0550
v 0.0000 1.3000 -0.0550
v 0.0170 1.3000 -0.0523
f 377 378 379 380
v 0.0000 1.1000 -0.0550
v -0.0170 1.1000 -0.0523
v -0.0170 1.3000 -0.0523
v 0.0000 1.3000 -0.0550
f 381 382 383 384
v -0.0170 1.1000 -0.0523
v -0.0323 1.1000 -0.0445
v -0.0323 1.3000 -0.0445
v -0.0170 1.3000 -0.0523
f 385 386 387 388
v -0.0323 1.1000 -0.0445
v -0.0445 1.1000 -0.0323
v -0.0445 1.3000 -0.0323
v -0.0323 1.3000 -0.0445
f 389 390 391 392
v -0.0445 1.1000 -0.0323
v -0.0523 1.1000 -0.0170
v -0.0523 1.3000 -0.0170
v -0.0445 1.3000 -0.0323
f 393 394 395 396
v -0.0523 1.1000 -0.0170
v -0.0550 1.1000 -0.0000
v -0.0550 1.3000 -0.0000
v -0.0523 1.3000 -0.0170
f 397 398 399 400
v -0.0550 1.1000 -0.0000
v -0.0523 1.1000 0.0170
v -0.0523 1.3000 0.0170
v -0.0550 1.3000 -0.0000
f 401 402 403 404
v -0.0523 1.1000 0.0170
v -0.0445 1.1000 0.0323
v -0.0445 1.3000 0.0323
v -0.0523 1.3000 0.0170
f 405 406 407 408
v -0.0445 1.1000 0.0323
v -0.0323 1.1000 0.0445
v -0.0323 1.3000 0.0445
v -0.0445 1.3000 0.0323
f 409 410 411 412
v -0.0323 1.1000 0.0445
v -0.0170 1.1000 0.0523
v -0.0170 1.3000 0.0523
v -0.0323 1.3000 0.0445
f 413 414 415 416
v -0.0170 1.1000 0.0523
v -0.0000 1.1000 0.0550
v -0.0000 1.3000 0.0550
v -0.0170 1.3000 0.0523
f 417 418 419 420
v -0.0000 1.1000 0.0550
v 0.0170 1.1000 0.0523
v 0.0170 1.3000 0.0523
v -0.0000 1.3000 0.0550
f 421 422 423 424
v 0.0170 1.1000 0.0523
v 0.0323 1.1000 0.0445
v 0.0323 1.3000 0.0445
v 0.0170 1.3000 0.0523
f 425 426 427 428
v 0.0323 1.1000 0.0445
v 0.0445 1.1000 0.0323
v 0.0445 1.3000 0.0323
v 0.0323 1.3000 0.0445
f 429 430 431 432
v 0.0445 1.1000 0.0323
v 0.0523 1.1000 0.0170
v 0.0523 1.3000 0.0170
v 0.0445 1.3000 0.0323
f 433 434 435 436
v 0.0523 1.1000 0.0170
v 0.0550 1.1000 0.0000
v 0.0550 1.3000 0.0000
v 0.0523 1.3000 0.0170
f 437 438 439 440
v 0.0550 1.1000 -0.0000
v 0.0523 1.1000 -0.0170
v 0.0445 1.1000 -0.0323
v 0.0323 1.1000 -0.0445
v 0.0170 1.1000 -0.0523
v 0.0000 1.1000 -0.0550
v -0.0170 1.1000 -0.0523
v -0.0323 1.1000 -0.0445
v -0.0445 1.1000 -0.0323
v -0.0523 1.1000 -0.0170
v -0.0550 1.1000 -0.0000
v -0.0523 1.1000 0.0170
v -0.0445 1.1000 0.0323
v -0.0323 1.1000 0.0445
v -0.0170 1.1000 0.0523
v -0.0000 1.1000 0.0550
v 0.0170 1.1000 0.0523
v 0.0323 1.1000 0.0445
v 0.0445 1.1000 0.0323
v 0.0523 1.1000 0.0170
f 441 442 443 444 445 446 447 448 449 450 451 452 453 454 455 456 457 458 459 460
v 0.0550 1.3000 -0.0000
v 0.0523 1.3000 -0.0170
v 0.0445 1.3000 -0.0323
v 0.0323 1.3000 -0.0445
v 0.0170 1.3000 -0.0523
v 0.0000 1.3000 -0.0550
v -0.0170 1.3000 -0.0523
v -0.0323 1.3000 -0.0445
v -0.0445 1.3000 -0.0323
v -0.0523 1.3000 -0.0170
v -0.0550 1.3000 -0.0000
v -0.0523 1.3000 0.0170
v -0.0445 1.3000 0.0323
v -0.0323 1.3000 0.0445
v -0.0170 1.3000 0.0523
v -0.0000 1.3000 0.0550
v 0.0170 1.3000 0.0523
v 0.0323 1.3000 0.0445
v 0.0445 1.3000 0.0323
v 0.0523 1.3000 0.0170
f 461 462 463 464 465 466 467 468 469 470 471 472 473 474 475 476 477 478 479 480

g muka_antena
usemtl bahan_08
v 0.0750 1.0600 -0.0000
v 0.0713 1.0600 -0.0232
v 0.0713 1.1000 -0.0232
v 0.0750 1.1000 -0.0000
f 481 482 483 484
v 0.0713 1.0600 -0.0232
v 0.0607 1.0600 -0.0441
v 0.0607 1.1000 -0.0441
v 0.0713 1.1000 -0.0232
f 485 486 487 488
v 0.0607 1.0600 -0.0441
v 0.0441 1.0600 -0.0607
v 0.0441 1.1000 -0.0607
v 0.0607 1.1000 -0.0441
f 489 490 491 492
v 0.0441 1.0600 -0.0607
v 0.0232 1.0600 -0.0713
v 0.0232 1.1000 -0.0713
v 0.0441 1.1000 -0.0607
f 493 494 495 496
v 0.0232 1.0600 -0.0713
v 0.0000 1.0600 -0.0750
v 0.0000 1.1000 -0.0750
v 0.0232 1.1000 -0.0713
f 497 498 499 500
v 0.0000 1.0600 -0.0750
v -0.0232 1.0600 -0.0713
v -0.0232 1.1000 -0.0713
v 0.0000 1.1000 -0.0750
f 501 502 503 504
v -0.0232 1.0600 -0.0713
v -0.0441 1.0600 -0.0607
v -0.0441 1.1000 -0.0607
v -0.0232 1.1000 -0.0713
f 505 506 507 508
v -0.0441 1.0600 -0.0607
v -0.0607 1.0600 -0.0441
v -0.0607 1.1000 -0.0441
v -0.0441 1.1000 -0.0607
f 509 510 511 512
v -0.0607 1.0600 -0.0441
v -0.0713 1.0600 -0.0232
v -0.0713 1.1000 -0.0232
v -0.0607 1.1000 -0.0441
f 513 514 515 516
v -0.0713 1.0600 -0.0232
v -0.0750 1.0600 -0.0000
v -0.0750 1.1000 -0.0000
v -0.0713 1.1000 -0.0232
f 517 518 519 520
v -0.0750 1.0600 -0.0000
v -0.0713 1.0600 0.0232
v -0.0713 1.1000 0.0232
v -0.0750 1.1000 -0.0000
f 521 522 523 524
v -0.0713 1.0600 0.0232
v -0.0607 1.0600 0.0441
v -0.0607 1.1000 0.0441
v -0.0713 1.1000 0.0232
f 525 526 527 528
v -0.0607 1.0600 0.0441
v -0.0441 1.0600 0.0607
v -0.0441 1.1000 0.0607
v -0.0607 1.1000 0.0441
f 529 530 531 532
v -0.0441 1.0600 0.0607
v -0.0232 1.0600 0.0713
v -0.0232 1.1000 0.0713
v -0.0441 1.1000 0.0607
f 533 534 535 536
v -0.0232 1.0600 0.0713
v -0.0000 1.0600 0.0750
v -0.0000 1.1000 0.0750
v -0.0232 1.1000 0.0713
f 537 538 539 540
v -0.0000 1.0600 0.0750
v 0.0232 1.0600 0.0713
v 0.0232 1.1000 0.0713
v -0.0000 1.1000 0.0750
f 541 542 543 544
v 0.0232 1.0600 0.0713
v 0.0441 1.0600 0.0607
v 0.0441 1.1000 0.0607
v 0.0232 1.1000 0.0713
f 545 546 547 548
v 0.0441 1.0600 0.0607
v 0.0607 1.0600 0.0441
v 0.0607 1.1000 0.0441
v 0.0441 1.1000 0.0607
f 549 550 551 552
v 0.0607 1.0600 0.0441
v 0.0713 1.0600 0.0232
v 0.0713 1.1000 0.0232
v 0.0607 1.1000 0.0441
f 553 554 555 556
v 0.0713 1.0600 0.0232
v 0.0750 1.0600 0.0000
v 0.0750 1.1000 0.0000
v 0.0713 1.1000 0.0232
f 557 558 559 560
v 0.0750 1.0600 -0.0000
v 0.0713 1.0600 -0.0232
v 0.0607 1.0600 -0.0441
v 0.0441 1.0600 -0.0607
v 0.0232 1.0600 -0.0713
v 0.0000 1.0600 -0.0750
v -0.0232 1.0600 -0.0713
v -0.0441 1.0600 -0.0607
v -0.0607 1.0600 -0.0441
v -0.0713 1.0600 -0.0232
v -0.0750 1.0600 -0.0000
v -0.0713 1.0600 0.0232
v -0.0607 1.0600 0.0441
v -0.0441 1.0600 0.0607
v -0.0232 1.0600 0.0713
v -0.0000 1.0600 0.0750
v 0.0232 1.0600 0.0713
v 0.0441 1.0600 0.0607
v 0.0607 1.0600 0.0441
v 0.0713 1.0600 0.0232
f 561 562 563 564 565 566 567 568 569 570 571 572 573 574 575 576 577 578 579 580
v 0.0750 1.1000 -0.0000
v 0.0713 1.1000 -0.0232
v 0.0607 1.1000 -0.0441
v 0.0441 1.1000 -0.0607
v 0.0232 1.1000 -0.0713
v 0.0000 1.1000 -0.0750
v -0.0232 1.1000 -0.0713
v -0.0441 1.1000 -0.0607
v -0.0607 1.1000 -0.0441
v -0.0713 1.1000 -0.0232
v -0.0750 1.1000 -0.0000
v -0.0713 1.1000 0.0232
v -0.0607 1.1000 0.0441
v -0.0441 1.1000 0.0607
v -0.0232 1.1000 0.0713
v -0.0000 1.1000 0.0750
v 0.0232 1.1000 0.0713
v 0.0441 1.1000 0.0607
v 0.0607 1.1000 0.0441
v 0.0713 1.1000 0.0232
f 581 582 583 584 585 586 587 588 589 590 591 592 593 594 595 596 597 598 599 600

g berkas_radar
usemtl bahan_09
v 0.0000 1.0600 0.0000
v 0.2600 0.4200 -0.0000
v 0.2443 0.4200 -0.0889
f 601 602 603
v 0.0000 1.0600 0.0000
v 0.2443 0.4200 -0.0889
v 0.1992 0.4200 -0.1671
f 604 605 606
v 0.0000 1.0600 0.0000
v 0.1992 0.4200 -0.1671
v 0.1300 0.4200 -0.2252
f 607 608 609
v 0.0000 1.0600 0.0000
v 0.1300 0.4200 -0.2252
v 0.0451 0.4200 -0.2561
f 610 611 612
v 0.0000 1.0600 0.0000
v 0.0451 0.4200 -0.2561
v -0.0451 0.4200 -0.2561
f 613 614 615
v 0.0000 1.0600 0.0000
v -0.0451 0.4200 -0.2561
v -0.1300 0.4200 -0.2252
f 616 617 618
v 0.0000 1.0600 0.0000
v -0.1300 0.4200 -0.2252
v -0.1992 0.4200 -0.1671
f 619 620 621
v 0.0000 1.0600 0.0000
v -0.1992 0.4200 -0.1671
v -0.2443 0.4200 -0.0889
f 622 623 624
v 0.0000 1.0600 0.0000
v -0.2443 0.4200 -0.0889
v -0.2600 0.4200 -0.0000
f 625 626 627
v 0.0000 1.0600 0.0000
v -0.2600 0.4200 -0.0000
v -0.2443 0.4200 0.0889
f 628 629 630
v 0.0000 1.0600 0.0000
v -0.2443 0.4200 0.0889
v -0.1992 0.4200 0.1671
f 631 632 633
v 0.0000 1.0600 0.0000
v -0.1992 0.4200 0.1671
v -0.1300 0.4200 0.2252
f 634 635 636
v 0.0000 1.0600 0.0000
v -0.1300 0.4200 0.2252
v -0.0451 0.4200 0.2561
f 637 638 639
v 0.0000 1.0600 0.0000
v -0.0451 0.4200 0.2561
v 0.0451 0.4200 0.2561
f 640 641 642
v 0.0000 1.0600 0.0000
v 0.0451 0.4200 0.2561
v 0.1300 0.4200 0.2252
f 643 644 645
v 0.0000 1.0600 0.0000
v 0.1300 0.4200 0.2252
v 0.1992 0.4200 0.1671
f 646 647 648
v 0.0000 1.0600 0.0000
v 0.1992 0.4200 0.1671
v 0.2443 0.4200 0.0889
f 649 650 651
v 0.0000 1.0600 0.0000
v 0.2443 0.4200 0.0889
v 0.2600 0.4200 0.0000
f 652 653 654

g sensor_debit
usemtl bahan_06
v 1.3500 0.1800 -0.1100
v 1.3500 0.2140 -0.1046
v 1.6100 0.2140 -0.1046
v 1.6100 0.1800 -0.1100
f 655 656 657 658
v 1.3500 0.2140 -0.1046
v 1.3500 0.2447 -0.0890
v 1.6100 0.2447 -0.0890
v 1.6100 0.2140 -0.1046
f 659 660 661 662
v 1.3500 0.2447 -0.0890
v 1.3500 0.2690 -0.0647
v 1.6100 0.2690 -0.0647
v 1.6100 0.2447 -0.0890
f 663 664 665 666
v 1.3500 0.2690 -0.0647
v 1.3500 0.2846 -0.0340
v 1.6100 0.2846 -0.0340
v 1.6100 0.2690 -0.0647
f 667 668 669 670
v 1.3500 0.2846 -0.0340
v 1.3500 0.2900 -0.0000
v 1.6100 0.2900 -0.0000
v 1.6100 0.2846 -0.0340
f 671 672 673 674
v 1.3500 0.2900 -0.0000
v 1.3500 0.2846 0.0340
v 1.6100 0.2846 0.0340
v 1.6100 0.2900 -0.0000
f 675 676 677 678
v 1.3500 0.2846 0.0340
v 1.3500 0.2690 0.0647
v 1.6100 0.2690 0.0647
v 1.6100 0.2846 0.0340
f 679 680 681 682
v 1.3500 0.2690 0.0647
v 1.3500 0.2447 0.0890
v 1.6100 0.2447 0.0890
v 1.6100 0.2690 0.0647
f 683 684 685 686
v 1.3500 0.2447 0.0890
v 1.3500 0.2140 0.1046
v 1.6100 0.2140 0.1046
v 1.6100 0.2447 0.0890
f 687 688 689 690
v 1.3500 0.2140 0.1046
v 1.3500 0.1800 0.1100
v 1.6100 0.1800 0.1100
v 1.6100 0.2140 0.1046
f 691 692 693 694
v 1.3500 0.1800 0.1100
v 1.3500 0.1460 0.1046
v 1.6100 0.1460 0.1046
v 1.6100 0.1800 0.1100
f 695 696 697 698
v 1.3500 0.1460 0.1046
v 1.3500 0.1153 0.0890
v 1.6100 0.1153 0.0890
v 1.6100 0.1460 0.1046
f 699 700 701 702
v 1.3500 0.1153 0.0890
v 1.3500 0.0910 0.0647
v 1.6100 0.0910 0.0647
v 1.6100 0.1153 0.0890
f 703 704 705 706
v 1.3500 0.0910 0.0647
v 1.3500 0.0754 0.0340
v 1.6100 0.0754 0.0340
v 1.6100 0.0910 0.0647
f 707 708 709 710
v 1.3500 0.0754 0.0340
v 1.3500 0.0700 0.0000
v 1.6100 0.0700 0.0000
v 1.6100 0.0754 0.0340
f 711 712 713 714
v 1.3500 0.0700 0.0000
v 1.3500 0.0754 -0.0340
v 1.6100 0.0754 -0.0340
v 1.6100 0.0700 0.0000
f 715 716 717 718
v 1.3500 0.0754 -0.0340
v 1.3500 0.0910 -0.0647
v 1.6100 0.0910 -0.0647
v 1.6100 0.0754 -0.0340
f 719 720 721 722
v 1.3500 0.0910 -0.0647
v 1.3500 0.1153 -0.0890
v 1.6100 0.1153 -0.0890
v 1.6100 0.0910 -0.0647
f 723 724 725 726
v 1.3500 0.1153 -0.0890
v 1.3500 0.1460 -0.1046
v 1.6100 0.1460 -0.1046
v 1.6100 0.1153 -0.0890
f 727 728 729 730
v 1.3500 0.1460 -0.1046
v 1.3500 0.1800 -0.1100
v 1.6100 0.1800 -0.1100
v 1.6100 0.1460 -0.1046
f 731 732 733 734
v 1.3500 0.1800 -0.1100
v 1.3500 0.2140 -0.1046
v 1.3500 0.2447 -0.0890
v 1.3500 0.2690 -0.0647
v 1.3500 0.2846 -0.0340
v 1.3500 0.2900 -0.0000
v 1.3500 0.2846 0.0340
v 1.3500 0.2690 0.0647
v 1.3500 0.2447 0.0890
v 1.3500 0.2140 0.1046
v 1.3500 0.1800 0.1100
v 1.3500 0.1460 0.1046
v 1.3500 0.1153 0.0890
v 1.3500 0.0910 0.0647
v 1.3500 0.0754 0.0340
v 1.3500 0.0700 0.0000
v 1.3500 0.0754 -0.0340
v 1.3500 0.0910 -0.0647
v 1.3500 0.1153 -0.0890
v 1.3500 0.1460 -0.1046
f 735 736 737 738 739 740 741 742 743 744 745 746 747 748 749 750 751 752 753 754
v 1.6100 0.1800 -0.1100
v 1.6100 0.2140 -0.1046
v 1.6100 0.2447 -0.0890
v 1.6100 0.2690 -0.0647
v 1.6100 0.2846 -0.0340
v 1.6100 0.2900 -0.0000
v 1.6100 0.2846 0.0340
v 1.6100 0.2690 0.0647
v 1.6100 0.2447 0.0890
v 1.6100 0.2140 0.1046
v 1.6100 0.1800 0.1100
v 1.6100 0.1460 0.1046
v 1.6100 0.1153 0.0890
v 1.6100 0.0910 0.0647
v 1.6100 0.0754 0.0340
v 1.6100 0.0700 0.0000
v 1.6100 0.0754 -0.0340
v 1.6100 0.0910 -0.0647
v 1.6100 0.1153 -0.0890
v 1.6100 0.1460 -0.1046
f 755 756 757 758 759 760 761 762 763 764 765 766 767 768 769 770 771 772 773 774

g kabel_ph
usemtl bahan_10
v -0.5380 0.3000 -0.1400
v -0.5386 0.3000 -0.1437
v -0.5386 1.3000 -0.1437
v -0.5380 1.3000 -0.1400
f 775 776 777 778
v -0.5386 0.3000 -0.1437
v -0.5403 0.3000 -0.1471
v -0.5403 1.3000 -0.1471
v -0.5386 1.3000 -0.1437
f 779 780 781 782
v -0.5403 0.3000 -0.1471
v -0.5429 0.3000 -0.1497
v -0.5429 1.3000 -0.1497
v -0.5403 1.3000 -0.1471
f 783 784 785 786
v -0.5429 0.3000 -0.1497
v -0.5463 0.3000 -0.1514
v -0.5463 1.3000 -0.1514
v -0.5429 1.3000 -0.1497
f 787 788 789 790
v -0.5463 0.3000 -0.1514
v -0.5500 0.3000 -0.1520
v -0.5500 1.3000 -0.1520
v -0.5463 1.3000 -0.1514
f 791 792 793 794
v -0.5500 0.3000 -0.1520
v -0.5537 0.3000 -0.1514
v -0.5537 1.3000 -0.1514
v -0.5500 1.3000 -0.1520
f 795 796 797 798
v -0.5537 0.3000 -0.1514
v -0.5571 0.3000 -0.1497
v -0.5571 1.3000 -0.1497
v -0.5537 1.3000 -0.1514
f 799 800 801 802
v -0.5571 0.3000 -0.1497
v -0.5597 0.3000 -0.1471
v -0.5597 1.3000 -0.1471
v -0.5571 1.3000 -0.1497
f 803 804 805 806
v -0.5597 0.3000 -0.1471
v -0.5614 0.3000 -0.1437
v -0.5614 1.3000 -0.1437
v -0.5597 1.3000 -0.1471
f 807 808 809 810
v -0.5614 0.3000 -0.1437
v -0.5620 0.3000 -0.1400
v -0.5620 1.3000 -0.1400
v -0.5614 1.3000 -0.1437
f 811 812 813 814
v -0.5620 0.3000 -0.1400
v -0.5614 0.3000 -0.1363
v -0.5614 1.3000 -0.1363
v -0.5620 1.3000 -0.1400
f 815 816 817 818
v -0.5614 0.3000 -0.1363
v -0.5597 0.3000 -0.1329
v -0.5597 1.3000 -0.1329
v -0.5614 1.3000 -0.1363
f 819 820 821 822
v -0.5597 0.3000 -0.1329
v -0.5571 0.3000 -0.1303
v -0.5571 1.3000 -0.1303
v -0.5597 1.3000 -0.1329
f 823 824 825 826
v -0.5571 0.3000 -0.1303
v -0.5537 0.3000 -0.1286
v -0.5537 1.3000 -0.1286
v -0.5571 1.3000 -0.1303
f 827 828 829 830
v -0.5537 0.3000 -0.1286
v -0.5500 0.3000 -0.1280
v -0.5500 1.3000 -0.1280
v -0.5537 1.3000 -0.1286
f 831 832 833 834
v -0.5500 0.3000 -0.1280
v -0.5463 0.3000 -0.1286
v -0.5463 1.3000 -0.1286
v -0.5500 1.3000 -0.1280
f 835 836 837 838
v -0.5463 0.3000 -0.1286
v -0.5429 0.3000 -0.1303
v -0.5429 1.3000 -0.1303
v -0.5463 1.3000 -0.1286
f 839 840 841 842
v -0.5429 0.3000 -0.1303
v -0.5403 0.3000 -0.1329
v -0.5403 1.3000 -0.1329
v -0.5429 1.3000 -0.1303
f 843 844 845 846
v -0.5403 0.3000 -0.1329
v -0.5386 0.3000 -0.1363
v -0.5386 1.3000 -0.1363
v -0.5403 1.3000 -0.1329
f 847 848 849 850
v -0.5386 0.3000 -0.1363
v -0.5380 0.3000 -0.1400
v -0.5380 1.3000 -0.1400
v -0.5386 1.3000 -0.1363
f 851 852 853 854
v -0.5380 0.3000 -0.1400
v -0.5386 0.3000 -0.1437
v -0.5403 0.3000 -0.1471
v -0.5429 0.3000 -0.1497
v -0.5463 0.3000 -0.1514
v -0.5500 0.3000 -0.1520
v -0.5537 0.3000 -0.1514
v -0.5571 0.3000 -0.1497
v -0.5597 0.3000 -0.1471
v -0.5614 0.3000 -0.1437
v -0.5620 0.3000 -0.1400
v -0.5614 0.3000 -0.1363
v -0.5597 0.3000 -0.1329
v -0.5571 0.3000 -0.1303
v -0.5537 0.3000 -0.1286
v -0.5500 0.3000 -0.1280
v -0.5463 0.3000 -0.1286
v -0.5429 0.3000 -0.1303
v -0.5403 0.3000 -0.1329
v -0.5386 0.3000 -0.1363
f 855 856 857 858 859 860 861 862 863 864 865 866 867 868 869 870 871 872 873 874
v -0.5380 1.3000 -0.1400
v -0.5386 1.3000 -0.1437
v -0.5403 1.3000 -0.1471
v -0.5429 1.3000 -0.1497
v -0.5463 1.3000 -0.1514
v -0.5500 1.3000 -0.1520
v -0.5537 1.3000 -0.1514
v -0.5571 1.3000 -0.1497
v -0.5597 1.3000 -0.1471
v -0.5614 1.3000 -0.1437
v -0.5620 1.3000 -0.1400
v -0.5614 1.3000 -0.1363
v -0.5597 1.3000 -0.1329
v -0.5571 1.3000 -0.1303
v -0.5537 1.3000 -0.1286
v -0.5500 1.3000 -0.1280
v -0.5463 1.3000 -0.1286
v -0.5429 1.3000 -0.1303
v -0.5403 1.3000 -0.1329
v -0.5386 1.3000 -0.1363
f 875 876 877 878 879 880 881 882 883 884 885 886 887 888 889 890 891 892 893 894

g probe_ph
usemtl bahan_11
v -0.5220 0.2600 -0.1400
v -0.5234 0.2600 -0.1487
v -0.5234 0.3600 -0.1487
v -0.5220 0.3600 -0.1400
f 895 896 897 898
v -0.5234 0.2600 -0.1487
v -0.5273 0.2600 -0.1565
v -0.5273 0.3600 -0.1565
v -0.5234 0.3600 -0.1487
f 899 900 901 902
v -0.5273 0.2600 -0.1565
v -0.5335 0.2600 -0.1627
v -0.5335 0.3600 -0.1627
v -0.5273 0.3600 -0.1565
f 903 904 905 906
v -0.5335 0.2600 -0.1627
v -0.5413 0.2600 -0.1666
v -0.5413 0.3600 -0.1666
v -0.5335 0.3600 -0.1627
f 907 908 909 910
v -0.5413 0.2600 -0.1666
v -0.5500 0.2600 -0.1680
v -0.5500 0.3600 -0.1680
v -0.5413 0.3600 -0.1666
f 911 912 913 914
v -0.5500 0.2600 -0.1680
v -0.5587 0.2600 -0.1666
v -0.5587 0.3600 -0.1666
v -0.5500 0.3600 -0.1680
f 915 916 917 918
v -0.5587 0.2600 -0.1666
v -0.5665 0.2600 -0.1627
v -0.5665 0.3600 -0.1627
v -0.5587 0.3600 -0.1666
f 919 920 921 922
v -0.5665 0.2600 -0.1627
v -0.5727 0.2600 -0.1565
v -0.5727 0.3600 -0.1565
v -0.5665 0.3600 -0.1627
f 923 924 925 926
v -0.5727 0.2600 -0.1565
v -0.5766 0.2600 -0.1487
v -0.5766 0.3600 -0.1487
v -0.5727 0.3600 -0.1565
f 927 928 929 930
v -0.5766 0.2600 -0.1487
v -0.5780 0.2600 -0.1400
v -0.5780 0.3600 -0.1400
v -0.5766 0.3600 -0.1487
f 931 932 933 934
v -0.5780 0.2600 -0.1400
v -0.5766 0.2600 -0.1313
v -0.5766 0.3600 -0.1313
v -0.5780 0.3600 -0.1400
f 935 936 937 938
v -0.5766 0.2600 -0.1313
v -0.5727 0.2600 -0.1235
v -0.5727 0.3600 -0.1235
v -0.5766 0.3600 -0.1313
f 939 940 941 942
v -0.5727 0.2600 -0.1235
v -0.5665 0.2600 -0.1173
v -0.5665 0.3600 -0.1173
v -0.5727 0.3600 -0.1235
f 943 944 945 946
v -0.5665 0.2600 -0.1173
v -0.5587 0.2600 -0.1134
v -0.5587 0.3600 -0.1134
v -0.5665 0.3600 -0.1173
f 947 948 949 950
v -0.5587 0.2600 -0.1134
v -0.5500 0.2600 -0.1120
v -0.5500 0.3600 -0.1120
v -0.5587 0.3600 -0.1134
f 951 952 953 954
v -0.5500 0.2600 -0.1120
v -0.5413 0.2600 -0.1134
v -0.5413 0.3600 -0.1134
v -0.5500 0.3600 -0.1120
f 955 956 957 958
v -0.5413 0.2600 -0.1134
v -0.5335 0.2600 -0.1173
v -0.5335 0.3600 -0.1173
v -0.5413 0.3600 -0.1134
f 959 960 961 962
v -0.5335 0.2600 -0.1173
v -0.5273 0.2600 -0.1235
v -0.5273 0.3600 -0.1235
v -0.5335 0.3600 -0.1173
f 963 964 965 966
v -0.5273 0.2600 -0.1235
v -0.5234 0.2600 -0.1313
v -0.5234 0.3600 -0.1313
v -0.5273 0.3600 -0.1235
f 967 968 969 970
v -0.5234 0.2600 -0.1313
v -0.5220 0.2600 -0.1400
v -0.5220 0.3600 -0.1400
v -0.5234 0.3600 -0.1313
f 971 972 973 974
v -0.5220 0.2600 -0.1400
v -0.5234 0.2600 -0.1487
v -0.5273 0.2600 -0.1565
v -0.5335 0.2600 -0.1627
v -0.5413 0.2600 -0.1666
v -0.5500 0.2600 -0.1680
v -0.5587 0.2600 -0.1666
v -0.5665 0.2600 -0.1627
v -0.5727 0.2600 -0.1565
v -0.5766 0.2600 -0.1487
v -0.5780 0.2600 -0.1400
v -0.5766 0.2600 -0.1313
v -0.5727 0.2600 -0.1235
v -0.5665 0.2600 -0.1173
v -0.5587 0.2600 -0.1134
v -0.5500 0.2600 -0.1120
v -0.5413 0.2600 -0.1134
v -0.5335 0.2600 -0.1173
v -0.5273 0.2600 -0.1235
v -0.5234 0.2600 -0.1313
f 975 976 977 978 979 980 981 982 983 984 985 986 987 988 989 990 991 992 993 994
v -0.5220 0.3600 -0.1400
v -0.5234 0.3600 -0.1487
v -0.5273 0.3600 -0.1565
v -0.5335 0.3600 -0.1627
v -0.5413 0.3600 -0.1666
v -0.5500 0.3600 -0.1680
v -0.5587 0.3600 -0.1666
v -0.5665 0.3600 -0.1627
v -0.5727 0.3600 -0.1565
v -0.5766 0.3600 -0.1487
v -0.5780 0.3600 -0.1400
v -0.5766 0.3600 -0.1313
v -0.5727 0.3600 -0.1235
v -0.5665 0.3600 -0.1173
v -0.5587 0.3600 -0.1134
v -0.5500 0.3600 -0.1120
v -0.5413 0.3600 -0.1134
v -0.5335 0.3600 -0.1173
v -0.5273 0.3600 -0.1235
v -0.5234 0.3600 -0.1313
f 995 996 997 998 999 1000 1001 1002 1003 1004 1005 1006 1007 1008 1009 1010 1011 1012 1013 1014

g tiang
usemtl bahan_12
v 1.9950 1.1100 0.9000
v 1.9928 1.1100 0.8861
v 1.9928 2.4600 0.8861
v 1.9950 2.4600 0.9000
f 1015 1016 1017 1018
v 1.9928 1.1100 0.8861
v 1.9864 1.1100 0.8735
v 1.9864 2.4600 0.8735
v 1.9928 2.4600 0.8861
f 1019 1020 1021 1022
v 1.9864 1.1100 0.8735
v 1.9765 1.1100 0.8636
v 1.9765 2.4600 0.8636
v 1.9864 2.4600 0.8735
f 1023 1024 1025 1026
v 1.9765 1.1100 0.8636
v 1.9639 1.1100 0.8572
v 1.9639 2.4600 0.8572
v 1.9765 2.4600 0.8636
f 1027 1028 1029 1030
v 1.9639 1.1100 0.8572
v 1.9500 1.1100 0.8550
v 1.9500 2.4600 0.8550
v 1.9639 2.4600 0.8572
f 1031 1032 1033 1034
v 1.9500 1.1100 0.8550
v 1.9361 1.1100 0.8572
v 1.9361 2.4600 0.8572
v 1.9500 2.4600 0.8550
f 1035 1036 1037 1038
v 1.9361 1.1100 0.8572
v 1.9235 1.1100 0.8636
v 1.9235 2.4600 0.8636
v 1.9361 2.4600 0.8572
f 1039 1040 1041 1042
v 1.9235 1.1100 0.8636
v 1.9136 1.1100 0.8735
v 1.9136 2.4600 0.8735
v 1.9235 2.4600 0.8636
f 1043 1044 1045 1046
v 1.9136 1.1100 0.8735
v 1.9072 1.1100 0.8861
v 1.9072 2.4600 0.8861
v 1.9136 2.4600 0.8735
f 1047 1048 1049 1050
v 1.9072 1.1100 0.8861
v 1.9050 1.1100 0.9000
v 1.9050 2.4600 0.9000
v 1.9072 2.4600 0.8861
f 1051 1052 1053 1054
v 1.9050 1.1100 0.9000
v 1.9072 1.1100 0.9139
v 1.9072 2.4600 0.9139
v 1.9050 2.4600 0.9000
f 1055 1056 1057 1058
v 1.9072 1.1100 0.9139
v 1.9136 1.1100 0.9265
v 1.9136 2.4600 0.9265
v 1.9072 2.4600 0.9139
f 1059 1060 1061 1062
v 1.9136 1.1100 0.9265
v 1.9235 1.1100 0.9364
v 1.9235 2.4600 0.9364
v 1.9136 2.4600 0.9265
f 1063 1064 1065 1066
v 1.9235 1.1100 0.9364
v 1.9361 1.1100 0.9428
v 1.9361 2.4600 0.9428
v 1.9235 2.4600 0.9364
f 1067 1068 1069 1070
v 1.9361 1.1100 0.9428
v 1.9500 1.1100 0.9450
v 1.9500 2.4600 0.9450
v 1.9361 2.4600 0.9428
f 1071 1072 1073 1074
v 1.9500 1.1100 0.9450
v 1.9639 1.1100 0.9428
v 1.9639 2.4600 0.9428
v 1.9500 2.4600 0.9450
f 1075 1076 1077 1078
v 1.9639 1.1100 0.9428
v 1.9765 1.1100 0.9364
v 1.9765 2.4600 0.9364
v 1.9639 2.4600 0.9428
f 1079 1080 1081 1082
v 1.9765 1.1100 0.9364
v 1.9864 1.1100 0.9265
v 1.9864 2.4600 0.9265
v 1.9765 2.4600 0.9364
f 1083 1084 1085 1086
v 1.9864 1.1100 0.9265
v 1.9928 1.1100 0.9139
v 1.9928 2.4600 0.9139
v 1.9864 2.4600 0.9265
f 1087 1088 1089 1090
v 1.9928 1.1100 0.9139
v 1.9950 1.1100 0.9000
v 1.9950 2.4600 0.9000
v 1.9928 2.4600 0.9139
f 1091 1092 1093 1094
v 1.9950 1.1100 0.9000
v 1.9928 1.1100 0.8861
v 1.9864 1.1100 0.8735
v 1.9765 1.1100 0.8636
v 1.9639 1.1100 0.8572
v 1.9500 1.1100 0.8550
v 1.9361 1.1100 0.8572
v 1.9235 1.1100 0.8636
v 1.9136 1.1100 0.8735
v 1.9072 1.1100 0.8861
v 1.9050 1.1100 0.9000
v 1.9072 1.1100 0.9139
v 1.9136 1.1100 0.9265
v 1.9235 1.1100 0.9364
v 1.9361 1.1100 0.9428
v 1.9500 1.1100 0.9450
v 1.9639 1.1100 0.9428
v 1.9765 1.1100 0.9364
v 1.9864 1.1100 0.9265
v 1.9928 1.1100 0.9139
f 1095 1096 1097 1098 1099 1100 1101 1102 1103 1104 1105 1106 1107 1108 1109 1110 1111 1112 1113 1114
v 1.9950 2.4600 0.9000
v 1.9928 2.4600 0.8861
v 1.9864 2.4600 0.8735
v 1.9765 2.4600 0.8636
v 1.9639 2.4600 0.8572
v 1.9500 2.4600 0.8550
v 1.9361 2.4600 0.8572
v 1.9235 2.4600 0.8636
v 1.9136 2.4600 0.8735
v 1.9072 2.4600 0.8861
v 1.9050 2.4600 0.9000
v 1.9072 2.4600 0.9139
v 1.9136 2.4600 0.9265
v 1.9235 2.4600 0.9364
v 1.9361 2.4600 0.9428
v 1.9500 2.4600 0.9450
v 1.9639 2.4600 0.9428
v 1.9765 2.4600 0.9364
v 1.9864 2.4600 0.9265
v 1.9928 2.4600 0.9139
f 1115 1116 1117 1118 1119 1120 1121 1122 1123 1124 1125 1126 1127 1128 1129 1130 1131 1132 1133 1134

g kotak_panel
usemtl bahan_13
v 1.7300 1.8500 1.0300
v 2.1700 1.8500 1.0300
v 2.1700 1.8500 0.8100
v 1.7300 1.8500 0.8100
f 1135 1136 1137 1138
v 1.7300 2.1900 1.0300
v 2.1700 2.1900 1.0300
v 2.1700 2.1900 0.8100
v 1.7300 2.1900 0.8100
f 1139 1140 1141 1142
v 1.7300 1.8500 1.0300
v 2.1700 1.8500 1.0300
v 2.1700 2.1900 1.0300
v 1.7300 2.1900 1.0300
f 1143 1144 1145 1146
v 1.7300 1.8500 0.8100
v 2.1700 1.8500 0.8100
v 2.1700 2.1900 0.8100
v 1.7300 2.1900 0.8100
f 1147 1148 1149 1150
v 1.7300 1.8500 1.0300
v 1.7300 1.8500 0.8100
v 1.7300 2.1900 0.8100
v 1.7300 2.1900 1.0300
f 1151 1152 1153 1154
v 2.1700 1.8500 1.0300
v 2.1700 1.8500 0.8100
v 2.1700 2.1900 0.8100
v 2.1700 2.1900 1.0300
f 1155 1156 1157 1158

g antena
usemtl bahan_06
v 1.9580 2.4600 0.9000
v 1.9576 2.4600 0.8975
v 1.9576 2.7400 0.8975
v 1.9580 2.7400 0.9000
f 1159 1160 1161 1162
v 1.9576 2.4600 0.8975
v 1.9565 2.4600 0.8953
v 1.9565 2.7400 0.8953
v 1.9576 2.7400 0.8975
f 1163 1164 1165 1166
v 1.9565 2.4600 0.8953
v 1.9547 2.4600 0.8935
v 1.9547 2.7400 0.8935
v 1.9565 2.7400 0.8953
f 1167 1168 1169 1170
v 1.9547 2.4600 0.8935
v 1.9525 2.4600 0.8924
v 1.9525 2.7400 0.8924
v 1.9547 2.7400 0.8935
f 1171 1172 1173 1174
v 1.9525 2.4600 0.8924
v 1.9500 2.4600 0.8920
v 1.9500 2.7400 0.8920
v 1.9525 2.7400 0.8924
f 1175 1176 1177 1178
v 1.9500 2.4600 0.8920
v 1.9475 2.4600 0.8924
v 1.9475 2.7400 0.8924
v 1.9500 2.7400 0.8920
f 1179 1180 1181 1182
v 1.9475 2.4600 0.8924
v 1.9453 2.4600 0.8935
v 1.9453 2.7400 0.8935
v 1.9475 2.7400 0.8924
f 1183 1184 1185 1186
v 1.9453 2.4600 0.8935
v 1.9435 2.4600 0.8953
v 1.9435 2.7400 0.8953
v 1.9453 2.7400 0.8935
f 1187 1188 1189 1190
v 1.9435 2.4600 0.8953
v 1.9424 2.4600 0.8975
v 1.9424 2.7400 0.8975
v 1.9435 2.7400 0.8953
f 1191 1192 1193 1194
v 1.9424 2.4600 0.8975
v 1.9420 2.4600 0.9000
v 1.9420 2.7400 0.9000
v 1.9424 2.7400 0.8975
f 1195 1196 1197 1198
v 1.9420 2.4600 0.9000
v 1.9424 2.4600 0.9025
v 1.9424 2.7400 0.9025
v 1.9420 2.7400 0.9000
f 1199 1200 1201 1202
v 1.9424 2.4600 0.9025
v 1.9435 2.4600 0.9047
v 1.9435 2.7400 0.9047
v 1.9424 2.7400 0.9025
f 1203 1204 1205 1206
v 1.9435 2.4600 0.9047
v 1.9453 2.4600 0.9065
v 1.9453 2.7400 0.9065
v 1.9435 2.7400 0.9047
f 1207 1208 1209 1210
v 1.9453 2.4600 0.9065
v 1.9475 2.4600 0.9076
v 1.9475 2.7400 0.9076
v 1.9453 2.7400 0.9065
f 1211 1212 1213 1214
v 1.9475 2.4600 0.9076
v 1.9500 2.4600 0.9080
v 1.9500 2.7400 0.9080
v 1.9475 2.7400 0.9076
f 1215 1216 1217 1218
v 1.9500 2.4600 0.9080
v 1.9525 2.4600 0.9076
v 1.9525 2.7400 0.9076
v 1.9500 2.7400 0.9080
f 1219 1220 1221 1222
v 1.9525 2.4600 0.9076
v 1.9547 2.4600 0.9065
v 1.9547 2.7400 0.9065
v 1.9525 2.7400 0.9076
f 1223 1224 1225 1226
v 1.9547 2.4600 0.9065
v 1.9565 2.4600 0.9047
v 1.9565 2.7400 0.9047
v 1.9547 2.7400 0.9065
f 1227 1228 1229 1230
v 1.9565 2.4600 0.9047
v 1.9576 2.4600 0.9025
v 1.9576 2.7400 0.9025
v 1.9565 2.7400 0.9047
f 1231 1232 1233 1234
v 1.9576 2.4600 0.9025
v 1.9580 2.4600 0.9000
v 1.9580 2.7400 0.9000
v 1.9576 2.7400 0.9025
f 1235 1236 1237 1238
v 1.9580 2.4600 0.9000
v 1.9576 2.4600 0.8975
v 1.9565 2.4600 0.8953
v 1.9547 2.4600 0.8935
v 1.9525 2.4600 0.8924
v 1.9500 2.4600 0.8920
v 1.9475 2.4600 0.8924
v 1.9453 2.4600 0.8935
v 1.9435 2.4600 0.8953
v 1.9424 2.4600 0.8975
v 1.9420 2.4600 0.9000
v 1.9424 2.4600 0.9025
v 1.9435 2.4600 0.9047
v 1.9453 2.4600 0.9065
v 1.9475 2.4600 0.9076
v 1.9500 2.4600 0.9080
v 1.9525 2.4600 0.9076
v 1.9547 2.4600 0.9065
v 1.9565 2.4600 0.9047
v 1.9576 2.4600 0.9025
f 1239 1240 1241 1242 1243 1244 1245 1246 1247 1248 1249 1250 1251 1252 1253 1254 1255 1256 1257 1258
v 1.9580 2.7400 0.9000
v 1.9576 2.7400 0.8975
v 1.9565 2.7400 0.8953
v 1.9547 2.7400 0.8935
v 1.9525 2.7400 0.8924
v 1.9500 2.7400 0.8920
v 1.9475 2.7400 0.8924
v 1.9453 2.7400 0.8935
v 1.9435 2.7400 0.8953
v 1.9424 2.7400 0.8975
v 1.9420 2.7400 0.9000
v 1.9424 2.7400 0.9025
v 1.9435 2.7400 0.9047
v 1.9453 2.7400 0.9065
v 1.9475 2.7400 0.9076
v 1.9500 2.7400 0.9080
v 1.9525 2.7400 0.9076
v 1.9547 2.7400 0.9065
v 1.9565 2.7400 0.9047
v 1.9576 2.7400 0.9025
f 1259 1260 1261 1262 1263 1264 1265 1266 1267 1268 1269 1270 1271 1272 1273 1274 1275 1276 1277 1278

g pipa_kabel
usemtl bahan_12
v 0.1000 1.1100 0.9200
v 1.9500 1.1100 0.9200
v 1.9500 1.1100 0.8800
v 0.1000 1.1100 0.8800
f 1279 1280 1281 1282
v 0.1000 1.1500 0.9200
v 1.9500 1.1500 0.9200
v 1.9500 1.1500 0.8800
v 0.1000 1.1500 0.8800
f 1283 1284 1285 1286
v 0.1000 1.1100 0.9200
v 1.9500 1.1100 0.9200
v 1.9500 1.1500 0.9200
v 0.1000 1.1500 0.9200
f 1287 1288 1289 1290
v 0.1000 1.1100 0.8800
v 1.9500 1.1100 0.8800
v 1.9500 1.1500 0.8800
v 0.1000 1.1500 0.8800
f 1291 1292 1293 1294
v 0.1000 1.1100 0.9200
v 0.1000 1.1100 0.8800
v 0.1000 1.1500 0.8800
v 0.1000 1.1500 0.9200
f 1295 1296 1297 1298
v 1.9500 1.1100 0.9200
v 1.9500 1.1100 0.8800
v 1.9500 1.1500 0.8800
v 1.9500 1.1500 0.9200
f 1299 1300 1301 1302
